# xmcd
#
# Track frame offsets: 
#        150
#        13338
#        34345
#        53941
#        67993
#        84515
#        101541
#        116765
#        132088
#        149679
#
# Disc length: 2192 seconds
#
# Revision: 0
# Processed by: cddbd v1.5.2PL0 Copyright (c) Steve Scherf et al.
# Submitted via: ExactAudioCopy v1.0b2
#
DISCID=8f088e0a
DTITLE=Oh My Darling - In the Lonesome Hours
DYEAR=2010
DGENRE=Bluegrass
TTITLE0=01 Caught you looking
TTITLE1=02 Won't Need My Shoes
TTITLE2=03 Pixou Falls
TTITLE3=04 Stolen Key
TTITLE4=05 Da Di Da
TTITLE5=06 All Hail Money
TTITLE6=07 Nobody's Calico
TTITLE7=08 Song After Song
TTITLE8=09 Little Darling Suzy
TTITLE9=10 A La Claire Fontaine
EXTD=
EXTT0=
EXTT1=
EXTT2=
EXTT3=
EXTT4=
EXTT5=
EXTT6=
EXTT7=
EXTT8=
EXTT9=
PLAYORDER=
